<svg width="26" height="46" viewBox="0 0 26 46" fill="none" xmlns="http://www.w3.org/2000/svg">
<path d="M2.86723 11.4313L12.9999 21.5639L23.1325 11.4313C23.7374 10.8263 24.7183 10.8263 25.3233 11.4313C25.9282 12.0363 25.9282 13.0171 25.3233 13.6221L14.0953 24.8501C13.8047 25.1407 13.4107 25.3038 12.9999 25.3038C12.5891 25.3038 12.195 25.1407 11.9045 24.8501L0.676393 13.6221C0.600763 13.5465 0.534599 13.465 0.477884 13.3791C0.0808658 12.7778 0.14703 11.9606 0.676393 11.4313C1.28137 10.8263 2.26225 10.8263 2.86723 11.4313Z" fill="white"/>
<path d="M2.86723 25.7574L12.9999 35.89L23.1325 25.7574C23.7374 25.1525 24.7183 25.1525 25.3233 25.7574C25.9282 26.3624 25.9282 27.3433 25.3233 27.9483L14.0953 39.1763C13.8047 39.4669 13.4107 39.63 12.9999 39.63C12.5891 39.63 12.195 39.4669 11.9045 39.1763L0.676393 27.9483C0.600763 27.8727 0.534599 27.7912 0.477884 27.7053C0.0808658 27.104 0.14703 26.2868 0.676393 25.7574C1.28137 25.1525 2.26225 25.1525 2.86723 25.7574Z" fill="white"/>
</svg>
